<svg width="16" height="16" viewBox="0 0 16 16" fill="none" xmlns="http://www.w3.org/2000/svg">
<g opacity="0.8">
<path d="M8 0C3.5816 0 0 3.5816 0 8C0 12.4184 3.5816 16 8 16C12.4184 16 16 12.4184 16 8C16 3.5816 12.4184 0 8 0ZM8 1.6C11.5344 1.6 14.4 4.4656 14.4 8C14.4 9.27783 14.0203 10.4649 13.375 11.4641L12.7594 10.9875C11.5178 10.0299 9.2296 9.6 8 9.6C6.7704 9.6 4.48143 10.0299 3.24063 10.9875L2.625 11.4656C1.97923 10.4662 1.6 9.27831 1.6 8C1.6 4.4656 4.4656 1.6 8 1.6ZM8 3C6.5664 3 5.4 4.1664 5.4 5.6C5.4 7.0336 6.5664 8.2 8 8.2C9.4336 8.2 10.6 7.0336 10.6 5.6C10.6 4.1664 9.4336 3 8 3ZM8 4.6C8.5512 4.6 9 5.0488 9 5.6C9 6.1512 8.5512 6.6 8 6.6C7.4488 6.6 7 6.1512 7 5.6C7 5.0488 7.4488 4.6 8 4.6ZM8 11.2C10.4806 11.2 11.8145 12.1348 12.4391 12.6031C11.288 13.7135 9.72548 14.4 8 14.4C6.27452 14.4 4.71201 13.7135 3.56094 12.6031C4.18552 12.1348 5.51943 11.2 8 11.2ZM3.24375 12.2719C3.34052 12.3785 3.43782 12.4847 3.54063 12.5844C3.43769 12.4842 3.33978 12.3787 3.24375 12.2719ZM12.7297 12.3C12.6419 12.3964 12.5543 12.4935 12.4609 12.5844C12.5541 12.494 12.6412 12.396 12.7297 12.3Z" fill="black"/>
</g>
</svg>
